<svg width="265" height="37" viewBox="0 0 265 37" fill="none" xmlns="http://www.w3.org/2000/svg">
<path d="M49.2691 9.95821V13.7806H40.4776V18.7792H47.2109V22.4546H40.4776V27.556H49.2691V31.3784H35.479V9.95821H49.2691ZM63.0571 21.5872C63.2532 21.9596 63.4394 22.3467 63.6158 22.7486C63.802 23.1504 63.9784 23.5621 64.1451 23.9835C64.3117 23.5523 64.4881 23.1357 64.6743 22.7339C64.8605 22.3222 65.0517 21.9253 65.2477 21.5431L70.7461 10.7227C70.8441 10.5365 70.9421 10.3944 71.0401 10.2963C71.1479 10.1885 71.2655 10.1101 71.3929 10.0611C71.5203 10.0121 71.6625 9.98271 71.8193 9.97291C71.9859 9.96311 72.177 9.95821 72.3926 9.95821H76.1857V31.3784H71.8046V19.0585C71.8046 18.4606 71.834 17.8138 71.8928 17.1179L66.218 28.1294C66.0416 28.4724 65.8014 28.7321 65.4976 28.9086C65.2036 29.085 64.8654 29.1732 64.4832 29.1732H63.8069C63.4247 29.1732 63.0816 29.085 62.7778 28.9086C62.4838 28.7321 62.2486 28.4724 62.0721 28.1294L56.3679 17.1032C56.4071 17.4462 56.4365 17.7893 56.4561 18.1323C56.4757 18.4655 56.4855 18.7743 56.4855 19.0585V31.3784H52.1045V9.95821H55.8975C56.1131 9.95821 56.2993 9.96311 56.4561 9.97291C56.6227 9.98271 56.7698 10.0121 56.8972 10.0611C57.0246 10.1101 57.1373 10.1885 57.2353 10.2963C57.3431 10.3944 57.446 10.5365 57.544 10.7227L63.0571 21.5872ZM84.6965 24.2187V31.3784H79.7274V9.95821H87.284C88.7933 9.95821 90.0871 10.1395 91.1652 10.5022C92.2531 10.855 93.145 11.3451 93.8409 11.9723C94.5466 12.5996 95.066 13.3396 95.3992 14.1923C95.7325 15.045 95.8991 15.9663 95.8991 16.9562C95.8991 18.0245 95.7276 19.0046 95.3845 19.8965C95.0415 20.7884 94.5171 21.5529 93.8115 22.1899C93.1058 22.827 92.209 23.3269 91.1211 23.6895C90.043 24.0423 88.7639 24.2187 87.284 24.2187H84.6965ZM84.6965 20.4698H87.284C88.5777 20.4698 89.5088 20.1611 90.0773 19.5436C90.6457 18.9262 90.93 18.0637 90.93 16.9562C90.93 16.4661 90.8565 16.0202 90.7094 15.6183C90.5624 15.2165 90.337 14.8734 90.0332 14.5892C89.7391 14.2952 89.3618 14.0698 88.9011 13.9129C88.4503 13.7561 87.9112 13.6777 87.284 13.6777H84.6965V20.4698ZM103.917 31.3784H98.9187V9.95821H103.917V31.3784ZM112.865 23.4543V31.3784H107.896V9.95821H114.864C116.413 9.95821 117.731 10.1199 118.819 10.4434C119.917 10.757 120.809 11.198 121.495 11.7665C122.191 12.335 122.695 13.0063 123.009 13.7806C123.323 14.5549 123.479 15.3978 123.479 16.3093C123.479 17.0052 123.386 17.6618 123.2 18.2793C123.014 18.8968 122.735 19.4701 122.362 19.9994C122 20.5188 121.549 20.9844 121.01 21.396C120.48 21.8077 119.868 22.1458 119.172 22.4105C119.505 22.5771 119.814 22.7829 120.098 23.0279C120.392 23.2729 120.647 23.5719 120.863 23.9247L125.42 31.3784H120.921C120.088 31.3784 119.49 31.0648 119.128 30.4375L115.57 24.2187C115.413 23.9443 115.227 23.7483 115.011 23.6307C114.806 23.5131 114.512 23.4543 114.129 23.4543H112.865ZM112.865 20.0288H114.864C115.541 20.0288 116.114 19.9455 116.584 19.7789C117.065 19.6024 117.457 19.3623 117.761 19.0585C118.064 18.7547 118.285 18.4018 118.422 18C118.559 17.5883 118.628 17.1473 118.628 16.6768C118.628 15.7359 118.319 15.0009 117.702 14.4716C117.094 13.9423 116.148 13.6777 114.864 13.6777H112.865V20.0288ZM141.24 9.95821V13.7806H132.449V18.7792H139.182V22.4546H132.449V27.556H141.24V31.3784H127.45V9.95821H141.24ZM150.555 31.3784V10.311H157.273C158.567 10.311 159.68 10.4385 160.611 10.6933C161.552 10.9481 162.321 11.3108 162.919 11.7812C163.526 12.2517 163.972 12.8299 164.257 13.516C164.551 14.1923 164.698 14.9567 164.698 15.8094C164.698 16.3289 164.614 16.8287 164.448 17.309C164.291 17.7893 164.046 18.2352 163.713 18.6468C163.389 19.0585 162.978 19.426 162.478 19.7495C161.988 20.0729 161.409 20.3375 160.743 20.5433C162.282 20.8472 163.443 21.4009 164.227 22.2046C165.011 23.0083 165.403 24.0668 165.403 25.3802C165.403 26.2721 165.237 27.0856 164.904 27.8206C164.58 28.5557 164.1 29.1879 163.463 29.7171C162.835 30.2464 162.061 30.658 161.14 30.9521C160.228 31.2363 159.185 31.3784 158.008 31.3784H150.555ZM153.407 21.7783V29.1144H157.964C158.778 29.1144 159.474 29.0213 160.052 28.835C160.64 28.6488 161.12 28.3891 161.493 28.0559C161.875 27.7128 162.154 27.311 162.331 26.8503C162.507 26.3799 162.595 25.8653 162.595 25.3067C162.595 24.2187 162.208 23.3612 161.434 22.7339C160.669 22.0968 159.508 21.7783 157.95 21.7783H153.407ZM153.407 19.7495H157.17C157.974 19.7495 158.67 19.6613 159.258 19.4848C159.846 19.3084 160.331 19.0634 160.714 18.7498C161.106 18.4361 161.395 18.0588 161.581 17.6177C161.767 17.1669 161.86 16.6768 161.86 16.1476C161.86 14.9126 161.488 14.006 160.743 13.4278C159.998 12.8495 158.842 12.5604 157.273 12.5604H153.407V19.7495ZM177.781 29.1144C178.653 29.1144 179.432 28.9674 180.118 28.6733C180.805 28.3793 181.383 27.9677 181.853 27.4384C182.334 26.9091 182.696 26.277 182.941 25.5419C183.196 24.8068 183.323 23.9982 183.323 23.1161V10.311H186.161V23.1161C186.161 24.3315 185.965 25.4586 185.573 26.4975C185.191 27.5364 184.637 28.4381 183.912 29.2026C183.196 29.9573 182.319 30.5502 181.28 30.9815C180.241 31.4127 179.075 31.6283 177.781 31.6283C176.487 31.6283 175.321 31.4127 174.282 30.9815C173.243 30.5502 172.361 29.9573 171.636 29.2026C170.91 28.4381 170.352 27.5364 169.96 26.4975C169.577 25.4586 169.386 24.3315 169.386 23.1161V10.311H172.224V23.1014C172.224 23.9835 172.346 24.7921 172.591 25.5272C172.846 26.2623 173.209 26.8944 173.679 27.4237C174.159 27.9529 174.743 28.3695 175.429 28.6733C176.125 28.9674 176.909 29.1144 177.781 29.1144ZM194.202 22.5869V31.3784H191.364V10.311H197.318C198.651 10.311 199.803 10.4483 200.773 10.7227C201.744 10.9873 202.542 11.3745 203.17 11.8841C203.807 12.3938 204.277 13.0112 204.581 13.7365C204.885 14.452 205.037 15.2557 205.037 16.1476C205.037 16.8925 204.919 17.5883 204.684 18.2352C204.449 18.8821 204.106 19.4652 203.655 19.9847C203.214 20.4943 202.67 20.9305 202.023 21.2931C201.386 21.6558 200.661 21.9302 199.847 22.1164C200.2 22.3222 200.514 22.6212 200.788 23.0132L206.933 31.3784H204.405C203.885 31.3784 203.503 31.1775 203.258 30.7757L197.789 23.2484C197.622 23.0132 197.441 22.8466 197.245 22.7486C197.049 22.6408 196.755 22.5869 196.363 22.5869H194.202ZM194.202 20.5139H197.186C198.019 20.5139 198.749 20.4159 199.377 20.2199C200.014 20.0141 200.543 19.7299 200.964 19.3672C201.396 18.9948 201.719 18.5537 201.935 18.0441C202.15 17.5344 202.258 16.9709 202.258 16.3534C202.258 15.0989 201.842 14.1531 201.009 13.516C200.185 12.8789 198.955 12.5604 197.318 12.5604H194.202V20.5139ZM218.698 29.3055C219.266 29.3055 219.786 29.281 220.256 29.232C220.737 29.1732 221.187 29.0899 221.609 28.9821C222.03 28.8742 222.427 28.7468 222.8 28.5998C223.172 28.443 223.545 28.2666 223.917 28.0706V23.4249H220.653C220.467 23.4249 220.315 23.371 220.198 23.2631C220.09 23.1553 220.036 23.023 220.036 22.8662V21.249H226.505V29.3349C225.975 29.7171 225.422 30.0504 224.843 30.3346C224.275 30.6188 223.662 30.859 223.006 31.055C222.359 31.2412 221.663 31.3784 220.918 31.4666C220.173 31.5646 219.364 31.6136 218.492 31.6136C216.963 31.6136 215.562 31.3539 214.288 30.8345C213.013 30.3052 211.916 29.5701 210.994 28.6292C210.073 27.6785 209.353 26.5416 208.833 25.2185C208.324 23.8953 208.069 22.4399 208.069 20.8521C208.069 19.2447 208.319 17.7795 208.819 16.4563C209.328 15.1332 210.049 14.0011 210.98 13.0602C211.921 12.1095 213.053 11.3745 214.376 10.855C215.709 10.3355 217.198 10.0758 218.845 10.0758C219.678 10.0758 220.452 10.1395 221.168 10.2669C221.883 10.3846 222.545 10.561 223.153 10.7962C223.77 11.0216 224.338 11.301 224.858 11.6342C225.377 11.9576 225.863 12.3252 226.313 12.7368L225.505 14.0305C225.338 14.2952 225.123 14.4275 224.858 14.4275C224.701 14.4275 224.53 14.3736 224.343 14.2658C224.098 14.1286 223.824 13.9619 223.52 13.7659C223.216 13.5699 222.844 13.3837 222.403 13.2073C221.972 13.021 221.457 12.8642 220.859 12.7368C220.271 12.6094 219.57 12.5457 218.757 12.5457C217.571 12.5457 216.498 12.7417 215.537 13.1338C214.577 13.516 213.758 14.0698 213.082 14.795C212.406 15.5105 211.886 16.3828 211.524 17.4119C211.161 18.4312 210.98 19.5779 210.98 20.8521C210.98 22.185 211.166 23.3759 211.538 24.4246C211.921 25.4635 212.455 26.3456 213.141 27.0709C213.827 27.7961 214.64 28.3499 215.581 28.7321C216.522 29.1144 217.561 29.3055 218.698 29.3055ZM243.878 10.311V12.6339H233.763V19.6319H241.952V21.8665H233.763V29.0556H243.878V31.3784H230.897V10.311H243.878ZM251.113 22.5869V31.3784H248.276V10.311H254.23C255.563 10.311 256.714 10.4483 257.685 10.7227C258.655 10.9873 259.454 11.3745 260.081 11.8841C260.718 12.3938 261.188 13.0112 261.492 13.7365C261.796 14.452 261.948 15.2557 261.948 16.1476C261.948 16.8925 261.83 17.5883 261.595 18.2352C261.36 18.8821 261.017 19.4652 260.566 19.9847C260.125 20.4943 259.581 20.9305 258.934 21.2931C258.297 21.6558 257.572 21.9302 256.758 22.1164C257.111 22.3222 257.425 22.6212 257.699 23.0132L263.844 31.3784H261.316C260.796 31.3784 260.414 31.1775 260.169 30.7757L254.7 23.2484C254.533 23.0132 254.352 22.8466 254.156 22.7486C253.96 22.6408 253.666 22.5869 253.274 22.5869H251.113ZM251.113 20.5139H254.097C254.93 20.5139 255.661 20.4159 256.288 20.2199C256.925 20.0141 257.454 19.7299 257.876 19.3672C258.307 18.9948 258.63 18.5537 258.846 18.0441C259.062 17.5344 259.169 16.9709 259.169 16.3534C259.169 15.0989 258.753 14.1531 257.92 13.516C257.096 12.8789 255.866 12.5604 254.23 12.5604H251.113V20.5139Z" fill="#F59A1B"/>
<g clip-path="url(#clip0_1002_271)">
<path d="M26.0479 25.1764V27.3897C25.9778 27.674 25.93 27.966 25.8353 28.2418C25.2428 29.9613 23.7467 31.0151 21.9063 31.019C17.1114 31.019 12.3165 31.019 7.52166 31.019C7.41073 31.019 7.30056 31.019 7.18963 31.0105C5.37383 30.9188 3.76373 29.5399 3.4756 27.7479C3.35696 27.0045 3.39856 26.2349 3.38316 25.4768C3.37083 24.8605 3.69131 24.5524 4.30377 24.5524C8.00161 24.5524 11.6974 24.5524 15.3911 24.5524C15.6578 24.549 15.9177 24.6368 16.1276 24.8012C16.9037 25.3893 17.682 25.9737 18.4627 26.5546C18.5613 26.6317 18.6614 26.7002 18.7631 26.7742C19.6537 26.1032 20.525 25.4491 21.3948 24.792C21.605 24.6277 21.8653 24.5406 22.132 24.5454C23.0988 24.5524 24.0657 24.5624 25.031 24.5454C25.5279 24.5316 25.8707 24.7034 26.0479 25.1764Z" fill="#F43127"/>
<path d="M29.5143 4.72567C29.2832 5.60622 29.052 6.48523 28.8286 7.36732C27.9982 10.68 27.1713 13.9926 26.348 17.3053C26.3002 17.4994 26.2247 17.5618 26.0221 17.5618C18.4985 17.5562 10.9745 17.5544 3.44985 17.5564C3.38359 17.5564 3.31657 17.5503 3.21873 17.5449C3.06465 16.9447 2.91058 16.3431 2.76189 15.7399C1.86054 12.1386 0.961762 8.53676 0.0655473 4.93444C0.0097831 4.75149 -0.00958399 4.55938 0.00853954 4.36898C0.113312 3.72186 0.859815 3.44452 1.39523 3.85514C2.24266 4.51381 3.08007 5.19329 3.92056 5.86507L7.52056 8.74631C8.0321 9.15538 8.1076 9.40499 7.90036 10.019C7.75651 10.4266 7.76933 10.8731 7.93634 11.2717C8.10335 11.6704 8.41261 11.9927 8.80402 12.1761C9.18611 12.3556 9.62053 12.3897 10.0259 12.272C10.4314 12.1543 10.78 11.8928 11.0066 11.5366C11.2371 11.177 11.3268 10.7448 11.2582 10.3231C11.1897 9.90138 10.9678 9.51983 10.6352 9.25168C10.1291 8.83105 10.059 8.50595 10.351 7.92045C11.5322 5.55178 12.715 3.18233 13.8993 0.812116C14.0796 0.448494 14.3254 0.186563 14.7468 0.185793C15.1682 0.185022 15.4193 0.443102 15.6004 0.807494C16.7816 3.17874 17.9642 5.54793 19.148 7.91506C19.4415 8.50287 19.3706 8.83952 18.8714 9.2486C18.5375 9.51594 18.3145 9.89754 18.2455 10.3197C18.1765 10.7418 18.2664 11.1746 18.4978 11.5343C18.7231 11.8913 19.0708 12.1539 19.4758 12.273C19.8808 12.3922 20.3153 12.3596 20.698 12.1815C21.0856 12.002 21.3936 11.6861 21.5631 11.2941C21.7326 10.902 21.7518 10.4613 21.6171 10.056C21.4006 9.38573 21.463 9.17387 22.0023 8.73783C23.9821 7.15238 25.9623 5.56796 27.9427 3.98456C28.6029 3.45685 29.1283 3.5724 29.5143 4.32353V4.72567Z" fill="#F43127"/>
<path d="M3.45898 19.312H26.0474V19.6063C26.0474 20.3174 26.0474 21.0284 26.0474 21.7395C26.0474 22.4274 25.7077 22.7656 25.019 22.7656H4.52674C3.78332 22.7656 3.46284 22.4405 3.46207 21.6871C3.46207 20.9953 3.46207 20.3038 3.46207 19.6125L3.45898 19.312Z" fill="#F43127"/>
</g>
<defs>
<clipPath id="clip0_1002_271">
<rect width="29.5142" height="30.8316" fill="white" transform="translate(0 0.188965)"/>
</clipPath>
</defs>
</svg>
