<svg width="60" height="61" viewBox="0 0 60 61" fill="none" xmlns="http://www.w3.org/2000/svg">
<circle cx="30" cy="30.5371" r="30" fill="#FAE2CB"/>
<g clip-path="url(#clip0_1002_221)">
<path d="M30.5987 14.0371C30.8892 14.0996 31.1844 14.148 31.4702 14.2266C33.5565 14.8002 34.9059 16.1247 35.6768 18.0893C33.1634 18.563 31.2963 19.8753 29.9983 22.0138C28.7036 19.8759 26.8372 18.5617 24.3311 18.0893C24.8881 16.565 25.853 15.3958 27.3296 14.6926C27.9746 14.3858 28.7069 14.2504 29.3992 14.0371C29.799 14.0371 30.1989 14.0371 30.5987 14.0371Z" fill="#60340B"/>
<path d="M23.7342 47.0372C23.5816 46.936 23.4091 46.8535 23.2805 46.7291C22.9073 46.3675 22.8966 45.8113 23.2691 45.4213C23.6603 45.0121 24.0694 44.617 24.4945 44.2412C24.5732 44.1716 24.7804 44.1819 24.9023 44.2244C26.1924 44.6724 27.5177 44.9495 28.885 45.0559C31.008 45.2209 33.0643 44.9308 35.0587 44.2277C35.3239 44.1342 35.4778 44.1729 35.6557 44.3643C35.9149 44.6434 36.2008 44.8986 36.4753 45.1642C37.2463 45.9086 37.1783 46.5087 36.2621 47.0378H23.7342V47.0372Z" fill="#60340B"/>
<path d="M42.2607 14.0371C42.324 14.0751 42.3853 14.1157 42.4506 14.1505C43.0283 14.458 43.1969 15.1567 42.7458 15.6246C41.8395 16.5656 40.8973 17.4744 39.9631 18.3896C39.9112 18.4405 39.7865 18.4586 39.7059 18.4425C39.1222 18.3252 38.5405 18.1976 37.9601 18.0661C37.8735 18.0461 37.7955 17.9894 37.7129 17.9494C37.7569 17.8695 37.7842 17.7747 37.8468 17.7129C38.9769 16.5933 40.1091 15.4751 41.2492 14.3639C41.3844 14.2318 41.567 14.1447 41.7276 14.0371H42.2607V14.0371Z" fill="#60340B"/>
<path d="M17.4004 33.4478H33.1634C33.7397 34.6949 34.7106 35.4252 36.1646 35.3562C37.4553 35.295 38.3142 34.5866 38.8186 33.449H42.5807C41.7758 37.527 37.5605 42.8482 30.5773 43.1512C23.552 43.456 18.4999 38.4313 17.4004 33.4478Z" fill="#60340B"/>
<path d="M42.9634 25.703C42.2697 25.703 41.5734 25.6966 40.8778 25.7056C40.402 25.7114 39.9176 25.6908 39.4518 25.7669C38.0318 25.9976 37.0143 27.1719 36.9997 28.5706C36.9857 29.859 37.003 31.1474 36.993 32.4352C36.987 33.1957 36.2294 33.6611 35.5544 33.3298C35.1712 33.1416 34.9966 32.8251 34.9966 32.4133C34.9966 31.2003 34.998 29.9872 34.9966 28.7736C34.9946 26.9315 33.7273 25.7063 31.8242 25.7037C31.5603 25.7037 31.2964 25.7037 30.9893 25.7037C31.0692 23.6373 31.9188 21.9912 33.6873 20.8813C35.7729 19.5729 37.9532 19.5439 40.1028 20.7505C42.1158 21.8803 43.052 24.0337 42.9627 25.7037L42.9634 25.703Z" fill="#60340B"/>
<path d="M32.998 31.504H32.5782C27.1361 31.504 21.6935 31.504 16.2515 31.504C15.3599 31.504 15.0034 31.1592 15.0054 30.2936C15.0061 29.961 14.9821 29.6233 15.0301 29.2965C15.1753 28.3045 16.0069 27.6394 17.0797 27.6381C20.2675 27.6349 23.4546 27.6368 26.6424 27.6368C28.3749 27.6368 30.1074 27.6368 31.8405 27.6368C32.6021 27.6368 32.996 28.0126 32.9973 28.7396C32.9993 29.6497 32.9973 30.5604 32.9973 31.5033L32.998 31.504Z" fill="#60340B"/>
<path d="M29.0164 25.6903H17.001C17.0536 23.8012 17.7959 22.2401 19.3538 21.1141C21.3449 19.6749 23.5265 19.4699 25.7414 20.5598C27.861 21.6027 28.8852 23.3732 29.0164 25.6903Z" fill="#60340B"/>
<path d="M38.9982 31.5012C38.9982 30.4835 38.9835 29.5071 39.0042 28.5319C39.0149 28.0369 39.4473 27.6476 39.9677 27.6418C41.0112 27.6295 42.056 27.6205 43.0995 27.6457C44.1024 27.6695 44.9293 28.4707 44.9853 29.4394C45.0073 29.8145 45.0026 30.1916 44.9886 30.5667C44.9693 31.0707 44.5768 31.4909 44.0637 31.4954C42.3886 31.5116 40.7134 31.5019 38.9982 31.5019V31.5012Z" fill="#60340B"/>
</g>
<defs>
<clipPath id="clip0_1002_221">
<rect width="30" height="33" fill="white" transform="translate(15 14.0371)"/>
</clipPath>
</defs>
</svg>
