<svg width="60" height="61" viewBox="0 0 60 61" fill="none" xmlns="http://www.w3.org/2000/svg">
<circle cx="30" cy="30.5371" r="30" fill="#FAE2CB"/>
<g clip-path="url(#clip0_1002_237)">
<path d="M16.5 31.5943H18.5549L19.6967 25.9146H17.6416L16.5 31.5943ZM17.7548 25.2372H19.8183L20.1574 23.5378H18.0947L17.7548 25.2372ZM19.3541 33.1925H21.4092L22.6648 27.0562H24.206L24.4333 25.9146H22.9216L22.9789 25.6578C23.0644 25.1737 23.2357 24.6302 24.0062 24.6302C24.4634 24.6302 24.8912 24.6587 25.3191 24.8585L25.5477 23.6599C25.0709 23.4917 24.5691 23.4048 24.0635 23.4028C22.408 23.4028 21.2667 24.3734 20.8383 25.9146H20.1248L19.8965 27.0562H20.61L19.3541 33.1925Z" fill="#60340B"/>
<path d="M25.8617 31.7087C28.2877 31.7087 29.9717 29.5108 29.9717 27.7127C29.9717 26.3713 28.7443 25.8004 27.5457 25.8004C24.8906 25.8004 23.4357 28.1707 23.4357 29.7963C23.4357 31.1377 24.6916 31.7087 25.8617 31.7087ZM32.3697 31.7087C34.7956 31.7087 36.4796 29.5108 36.4796 27.7127C36.4796 26.3713 35.2238 25.8004 34.0249 25.8004C31.3706 25.8004 29.9152 28.1694 29.9152 29.7963C29.9152 31.1377 31.1996 31.7087 32.3697 31.7087ZM39.8189 31.5944H41.8452L43.5002 23.5183H41.4453L40.9599 25.9158L40.1037 25.8303C38.1058 25.8303 36.2793 28.3987 36.2793 30.2256C36.2793 30.9675 36.7634 31.7097 37.5922 31.7097C38.7623 31.7097 39.59 31.1388 39.9318 30.5679H40.0459L39.8189 31.5944ZM33.4822 35.8471C31.8872 37.1687 29.8385 37.814 27.774 37.6452C25.0625 37.4739 23.1216 35.3902 22.7793 33.1926H22.8933C23.5213 34.5641 25.034 35.8471 26.8893 36.0467C28.7717 36.275 31.0277 35.419 32.2548 34.2487L30.8849 33.1926H35.0234L34.1091 37.5882L33.5096 35.8757L33.4822 35.8471Z" fill="#60340B"/>
</g>
<defs>
<clipPath id="clip0_1002_237">
<rect width="27" height="14.2686" fill="white" transform="translate(16.5 23.4028)"/>
</clipPath>
</defs>
</svg>
